<?xml version="1.0" encoding="UTF-8" standalone="no"?>
<!DOCTYPE svg PUBLIC "-//W3C//DTD SVG 1.1//EN" "http://www.w3.org/Graphics/SVG/1.1/DTD/svg11.dtd">
<svg width="100%" height="100%" viewBox="0 0 2400 2400" version="1.1" xmlns="http://www.w3.org/2000/svg" xmlns:xlink="http://www.w3.org/1999/xlink" xml:space="preserve" xmlns:serif="http://www.serif.com/" style="fill-rule:evenodd;clip-rule:evenodd;stroke-linecap:round;stroke-linejoin:round;stroke-miterlimit:1.5;">
    <g transform="matrix(0.983333,0,0,0.450644,2.91323e-13,560)">
        <rect class='overlay' x="0" y="0" width="100%" height="100%" style="fill:rgb(35,77,106);"/>
    </g>
    <g>
        <path d="M956.266,263.674C805.051,463.118 496.529,618.895 583.579,914.864C606.12,991.505 655.755,1064.88 727.704,1102.74C867.37,1176.25 1172.4,1137.2 1268.29,1001.39" style="fill:rgb(78,185,152);"/>
        <path d="M0,1520C29.929,1521.89 33.969,1503.22 40,1500C181.908,1424.22 280.785,1412.87 328.978,1240.41C350.411,1163.72 336.323,1084.25 326.13,1007C307.497,865.798 299.311,716.86 363.563,585.13C469.657,367.613 202.754,561.239 60,640" style="fill:rgb(78,185,152);"/>
        <path d="M420.581,1876.69C449.07,1758.09 729.579,1527.66 632.719,1404.12C586.211,1344.81 520.963,1425.11 495.136,1462.88C469.985,1499.66 452.373,1541.11 426.367,1577.32C351.165,1682.03 249.134,1771.97 225.936,1905.54" style="fill:rgb(78,185,152);"/>
        <path d="M1676.63,1563.65C1646.62,1508.31 1597.03,1471.16 1548.84,1432.66C1455.66,1358.21 1386.45,1290.62 1270.33,1383.96C1184.57,1452.9 1194.97,1534.6 1135.24,1603.09" style="fill:rgb(78,185,152);"/>
        <path d="M2380,760C2349.69,758.376 2431.35,681.93 2396.36,685.19C2276.66,696.342 2252.02,889.536 2115.46,931.556C2023.11,959.97 1907.03,749.519 1821.06,905.072C1716.8,1093.74 1864.99,1166.02 1888.99,1334.02C1902.12,1425.92 1859.88,1517.3 1871.94,1608.74C1880.35,1672.51 1906.34,1768.3 1981.03,1779.97C2011.28,1784.7 2043.11,1770.3 2068.99,1755.94C2208.6,1678.47 2131.12,1610.63 2202.16,1521.45C2262.74,1445.42 2293.03,1448.14 2380,1420" style="fill:rgb(78,185,152);"/>
    </g>
    <g>
        <path d="M2099.02,542.603C2097.21,609.981 1919.57,819.928 2040,840C2162.44,860.406 2270.69,663.163 2358.96,602.504" style="fill:rgb(245,92,69);"/>
        <path d="M1727.36,1328.19C1753.65,1309.24 1729.88,1250.51 1719.01,1214.05C1711.99,1190.53 1696.41,1154.82 1687,1134.32C1669.96,1097.21 1649.52,1056.6 1629.22,1021.28C1614.19,995.135 1596.7,966.58 1578.32,941.753C1568.35,928.275 1556.52,913.573 1544.43,901.791C1535.76,893.343 1524.34,883.618 1512.83,878.848C1477.95,864.388 1444.83,900.254 1425.15,923.937C1420.17,929.932 1415.32,936.047 1410.8,942.394C1401.09,956.018 1391.62,969.815 1382.48,983.828C1363.9,1012.32 1346.48,1041.55 1327.66,1069.88C1313.89,1090.62 1296.63,1116.21 1275.8,1131.83C1254.76,1147.6 1236.17,1159.01 1212.62,1170.9C1143.92,1205.61 1064.69,1228.12 987.387,1228.56C978.931,1228.61 970.475,1227.87 962.074,1226.91C953.263,1225.91 944.537,1224.25 935.809,1222.67C880.815,1212.75 811.348,1192.35 766.919,1239.67C757.626,1249.57 750.061,1261.81 744.151,1273.94C737.387,1287.82 732.178,1303.08 728.397,1318.02C722.22,1342.44 719.273,1367.79 719.48,1392.97C719.682,1417.35 722.729,1442.08 730.364,1465.32C734.91,1479.16 741.216,1492.96 749.812,1504.8C753.851,1510.37 758.377,1515.64 763.461,1520.27C797.546,1551.31 844.48,1545.42 885.474,1534.52C894.719,1532.06 903.702,1528.7 912.904,1526.08C946.119,1516.64 981.042,1510.66 1011.07,1492.6C1040.74,1474.77 1067.85,1448.49 1091.7,1424.2C1150.78,1364.03 1150.92,1357.38 1202.25,1312.5C1234.79,1284.03 1274.94,1262.41 1317.29,1253.24C1394.3,1236.55 1470.42,1253.25 1539.41,1288.6C1592.5,1315.81 1648.39,1385.1 1727.36,1328.19Z" style="fill:rgb(245,92,69);"/>
        <path d="M181.988,1941.24C211.397,1830.78 357.865,1593.43 300,1520C244.843,1450 142.122,1526.24 20,1580" style="fill:rgb(245,92,69);"/>
        <path d="M472.304,545.197C471.705,545.81 472.812,543.534 473.287,542.82C485.427,524.594 536.781,505.979 546.664,534.216C556.789,563.146 487.688,747.482 491.486,817.871C494.699,877.405 518.323,935.257 554.001,982.673C630.385,1084.19 750.466,1150.46 622.923,1273.17C601.254,1294.01 577.525,1312.9 552.806,1330C522.015,1351.3 481.281,1377.72 441.887,1368.68C356.908,1349.18 438.37,1133.6 430.599,1064.54C424.868,1013.62 403.947,971.862 385.913,924.972C354.628,843.631 358.994,754.422 384.717,672.226C396.644,634.116 414.345,589.927 444.609,562.601" style="fill:rgb(245,92,69);"/>
    </g>
    <g id="Layer2">
        <path d="M2080,598.781C2072.13,619.707 2023.26,785.685 2060,800C2080.64,808.046 2144.19,771.079 2160,760" style="fill:rgb(245,148,89);"/>
        <path d="M1670.86,402.9C1668.62,402.932 1658.89,404.051 1656.88,405.003C1651.36,407.628 1646.27,411.332 1641.79,415.481C1627.61,428.635 1617.17,446.566 1610.92,464.757C1603.17,487.265 1599.29,521.2 1615.58,541.236C1623.13,550.521 1634.6,556.225 1645.69,560.077C1652.49,562.44 1659.83,564.275 1667.07,564.353C1677.54,564.466 1687.59,560.651 1696.47,555.405C1708.18,548.484 1718.66,538.983 1724.65,526.581C1745.71,483.041 1685.25,402.694 1670.86,402.9Z" style="fill:rgb(245,148,89);"/>
        <path d="M850.748,1261.34C849.486,1258.88 842.221,1263.11 841.177,1263.72C822.407,1274.69 809.211,1297.96 799.692,1316.6C798.125,1319.66 797.955,1320.07 796.495,1323.2C795.077,1326.24 794.762,1326.89 793.438,1329.97C792.083,1333.13 791.836,1333.78 790.589,1336.99C765.889,1400.59 772.782,1481.77 852.084,1492.64C982.543,1510.53 1065.55,1369.53 1148.83,1294.15C1200.33,1247.53 1269.28,1201.21 1337.27,1184.05C1445.59,1156.72 1516,1263.21 1600.94,1307.95C1633.24,1324.96 1687.5,1328.96 1689.25,1278.83C1691.23,1222.62 1557.7,942.006 1482.36,954.158C1423.27,963.688 1388.95,1116.45 1331.3,1152.71C1302,1171.14 1265.35,1179.17 1233.6,1192.63C1169.14,1219.96 1107.89,1259.88 1036.71,1265.53C979.05,1270.1 918.228,1256.65 861.604,1263.58" style="fill:rgb(245,148,89);"/>
        <path d="M200,1780C245.926,1688.15 321.221,1643.65 260,1540C229.964,1489.15 82.467,1606.98 20,1600" style="fill:rgb(245,148,89);"/>
        <path d="M506.625,556.335C506.598,556.407 504.074,557.355 503.851,557.469C480.789,569.354 459.986,583.157 444.226,604.479C416.349,642.194 400.698,724.146 396.492,770.93C387.104,875.376 451.821,944.903 467.185,1043.54C470.379,1064.05 472.231,1084.74 472.454,1105.49C472.775,1135.52 471.217,1165.74 467.79,1195.58C461.416,1251.08 438.673,1352.37 538.101,1282.77C549.707,1274.65 560.47,1265.41 570.522,1255.44C587.309,1238.79 602.394,1220.1 614.309,1199.64C645.065,1146.82 613.449,1113.72 583.346,1070.45C532.117,996.806 464.074,941.197 452.387,847.698C442.064,765.115 493.604,693.334 523.864,620.644C528.676,609.086 549.145,550.62 518.842,554.66" style="fill:rgb(245,148,89);"/>
    </g>
    <g>
        <path d="M284.69,459.076C167.407,657.613 241.638,877.314 232.034,1090.99C230.151,1132.9 232.671,1181.71 215.565,1221.1C194.443,1269.73 145.909,1315.93 108.117,1351.51C67.656,1389.61 77.578,1441.08 20,1440C18.949,1221.8 25.432,1093 20,960C8.257,672.466 101.638,787.935 100,500" style="fill:rgb(239,231,179);stroke:rgb(239,231,179);stroke-width:1px;"/>
        <path d="M958.803,388.17C871.256,497.795 728.326,612.599 708.431,760.056C682.122,955.054 764.884,1010.07 943.314,1013.46C1046.93,1015.42 1137.23,1007.1 1201.12,911.882C1262.65,820.188 1253.05,702.122 1295.13,602.978C1317.96,549.175 1380.08,497.393 1381.21,436.776C1382.2,383.775 1349.07,340.489 1334.25,291.538" style="fill:rgb(239,231,179);"/>
        <path d="M2360,800C2362.58,805.191 2327.63,833.307 2298.39,860.472C2245.22,909.872 2195.64,1050.39 2127.79,1064.2C2069.09,1076.14 1955.83,972.77 1909.33,1029.84C1859.24,1091.31 1966.75,1214.69 1977.74,1281.9C1993.49,1378.23 1942.07,1469.48 1945.91,1564.94C1947.26,1598.44 1970.84,1653.75 2014.51,1637.05C2087.67,1609.07 2102.05,1487.11 2150.26,1432.12C2226.27,1345.44 2253.79,1335.12 2360,1300" style="fill:rgb(239,231,179);"/>
        <path d="M1644.27,1681.25C1611.01,1603.38 1411.25,1391.58 1314.04,1472.76C1266.28,1512.65 1251.42,1631.78 1208.29,1688.06" style="fill:rgb(239,231,179);"/>
        <path d="M480,1720C534.698,1621.48 542.226,1645.76 587.523,1542.51C597.897,1518.87 632.416,1447.87 590.202,1435.59C544.483,1422.29 461.847,1573.06 443.204,1604.87C422.633,1639.97 405.204,1676.78 384.024,1711.56" style="fill:rgb(239,231,179);"/>
    </g>
    <path d="M2400,0L0,0L0,2400L2400,2400L2400,0ZM2327.16,1384.66C2308.02,1465.61 2271.53,1527.82 2217.7,1571.28C2162.27,1614.35 2096.68,1635.88 2020.91,1635.88C1952.32,1634.29 1895.1,1617.54 1849.25,1585.64C1802.59,1554.93 1768.69,1519.44 1747.56,1479.17C1741.18,1466.01 1735.4,1453.45 1730.22,1441.49C1725.43,1429.12 1721.44,1413.57 1718.25,1394.83C1712.27,1359.74 1709.28,1292.35 1709.28,1192.66C1709.28,1091.38 1712.27,1023.59 1718.25,989.292C1724.63,954.999 1734.4,927.285 1747.56,906.151C1768.69,865.876 1802.59,829.988 1849.25,798.486C1895.1,766.585 1952.32,750.236 2020.91,749.438C2105.05,750.236 2173.64,775.158 2226.67,824.206C2279.71,873.652 2313.2,934.861 2327.16,1007.84L2187.19,1007.84C2176.43,972.744 2156.89,942.837 2128.58,918.114C2099.07,894.587 2063.18,882.425 2020.91,881.627C1989.81,882.425 1963.09,888.605 1940.76,900.169C1918.03,912.132 1899.69,927.086 1885.73,945.03C1868.59,963.772 1857.22,987.897 1851.64,1017.4C1845.26,1048.51 1842.07,1106.93 1842.07,1192.66C1842.07,1278.39 1845.26,1336.41 1851.64,1366.72C1857.22,1397.02 1868.59,1421.55 1885.73,1440.29C1899.69,1458.23 1918.03,1472.79 1940.76,1483.95C1963.09,1497.11 1989.81,1503.69 2020.91,1503.69C2095.08,1503.69 2150.51,1464.02 2187.19,1384.66L2327.16,1384.66ZM63.798,756.616L401.747,756.616C487.48,757.413 551.88,778.946 594.946,821.215C638.411,863.882 660.143,920.307 660.143,990.488C660.941,1026.38 652.368,1060.67 634.423,1093.37C625.252,1108.92 612.093,1123.67 594.946,1137.63C577.799,1152.38 556.665,1165.74 531.543,1177.71L531.543,1180.1C578.996,1192.46 614.884,1217.38 639.208,1254.87C661.938,1293.55 673.302,1335.62 673.302,1381.07C672.505,1456.44 648.978,1516.05 602.722,1559.92C556.865,1605.78 499.643,1628.7 431.056,1628.7L63.798,1628.7L63.798,756.616ZM810.875,756.616L935.288,756.616L1185.31,1324.85L1430.55,756.616L1555.56,756.616L1555.56,1628.7L1423.37,1628.7L1423.37,1085L1420.38,1085L1237.95,1503.69L1127.89,1503.69L945.456,1085L943.063,1085L943.063,1628.7L810.875,1628.7L810.875,756.616ZM195.987,1241.71L195.987,1503.69L399.355,1503.69C448.402,1502.89 484.29,1489.54 507.02,1463.62C529.749,1438.1 541.114,1407.79 541.114,1372.7C541.114,1336.81 529.749,1306.11 507.02,1280.59C484.29,1255.46 448.402,1242.51 399.355,1241.71L195.987,1241.71ZM195.987,874.449L195.987,1123.87L386.794,1123.87C435.044,1123.87 470.533,1111.31 493.262,1086.19C516.39,1063.06 527.955,1033.95 527.955,998.862C527.955,963.772 516.39,934.064 493.262,909.74C470.533,887.01 435.044,875.247 386.794,874.449L195.987,874.449Z" style="fill:white;"/>
</svg>
